<svg width="42" height="42" viewBox="0 0 42 42" fill="none" xmlns="http://www.w3.org/2000/svg">
    <path d="M21 3.56995C11.375 3.56995 3.5 11.4274 3.5 21.1049C3.5 29.8549 9.905 37.1174 18.27 38.4299V26.1799H13.825V21.1049H18.27V17.2374C18.27 12.8449 20.8775 10.4299 24.885 10.4299C26.7925 10.4299 28.7875 10.7624 28.7875 10.7624V15.0849H26.5825C24.4125 15.0849 23.73 16.4324 23.73 17.8149V21.1049H28.595L27.8075 26.1799H23.73V38.4299C27.8538 37.7787 31.6089 35.6746 34.3174 32.4976C37.0259 29.3205 38.5094 25.2798 38.5 21.1049C38.5 11.4274 30.625 3.56995 21 3.56995Z" fill="#1F5A41"/>
</svg>
