<svg width="48" height="40" viewBox="0 0 48 40" fill="none" xmlns="http://www.w3.org/2000/svg">
    <path d="M19.2 28.5714L31.656 20L19.2 11.4286V28.5714ZM46.944 6.2C47.256 7.54286 47.472 9.34286 47.616 11.6286C47.784 13.9143 47.856 15.8857 47.856 17.6L48 20C48 26.2571 47.616 30.8571 46.944 33.8C46.344 36.3714 44.952 38.0286 42.792 38.7429C41.664 39.1143 39.6 39.3714 36.432 39.5429C33.312 39.7429 30.456 39.8286 27.816 39.8286L24 40C13.944 40 7.68 39.5429 5.208 38.7429C3.048 38.0286 1.656 36.3714 1.056 33.8C0.744 32.4571 0.528 30.6571 0.384 28.3714C0.216 26.0857 0.144 24.1143 0.144 22.4L0 20C0 13.7429 0.384 9.14286 1.056 6.2C1.656 3.62857 3.048 1.97143 5.208 1.25714C6.336 0.885715 8.4 0.628571 11.568 0.457142C14.688 0.257142 17.544 0.171428 20.184 0.171428L24 0C34.056 0 40.32 0.457143 42.792 1.25714C44.952 1.97143 46.344 3.62857 46.944 6.2Z" fill="#F7F7F7"/>
</svg>
