<svg width="48" height="48" viewBox="0 0 48 48" fill="none" xmlns="http://www.w3.org/2000/svg">
    <path d="M8 42V23.25L4.4 26L2 22.8L24 6L46 22.8L43.6 25.95L40 23.25V42H8ZM16 30C15.4333 30 14.9587 29.808 14.576 29.424C14.1933 29.04 14.0013 28.5653 14 28C13.9987 27.4347 14.1907 26.96 14.576 26.576C14.9613 26.192 15.436 26 16 26C16.564 26 17.0393 26.192 17.426 26.576C17.8127 26.96 18.004 27.4347 18 28C17.996 28.5653 17.804 29.0407 17.424 29.426C17.044 29.8113 16.5693 30.0027 16 30ZM24 30C23.4333 30 22.9587 29.808 22.576 29.424C22.1933 29.04 22.0013 28.5653 22 28C21.9987 27.4347 22.1907 26.96 22.576 26.576C22.9613 26.192 23.436 26 24 26C24.564 26 25.0393 26.192 25.426 26.576C25.8127 26.96 26.004 27.4347 26 28C25.996 28.5653 25.804 29.0407 25.424 29.426C25.044 29.8113 24.5693 30.0027 24 30ZM32 30C31.4333 30 30.9587 29.808 30.576 29.424C30.1933 29.04 30.0013 28.5653 30 28C29.9987 27.4347 30.1907 26.96 30.576 26.576C30.9613 26.192 31.436 26 32 26C32.564 26 33.0393 26.192 33.426 26.576C33.8127 26.96 34.004 27.4347 34 28C33.996 28.5653 33.804 29.0407 33.424 29.426C33.044 29.8113 32.5693 30.0027 32 30Z" fill="#20553E"/>
</svg>
