<svg width="50" height="25" viewBox="0 0 50 25" fill="none" xmlns="http://www.w3.org/2000/svg">
<g clip-path="url(#clip0_1172_20944)">
<mask id="mask0_1172_20944" style="mask-type:luminance" maskUnits="userSpaceOnUse" x="0" y="0" width="50" height="25">
<path d="M50 0H0V25H50V0Z" fill="white"/>
</mask>
<g mask="url(#mask0_1172_20944)">
<path d="M38.11 25H11.88C5.32 25 0 19.407 0 12.507C0 5.602 5.315 0.00200054 11.88 5.35547e-07H38.11C44.678 -0.00199946 50 5.598 50 12.505C50 19.405 44.674 25.005 38.11 25Z" fill="#072653"/>
<path d="M18.75 10.581C19.0486 10.2011 19.4232 9.88771 19.85 9.66101C20.2941 9.42923 20.7891 9.31234 21.29 9.32101C21.7146 9.31062 22.1359 9.39965 22.52 9.58101C22.8559 9.74648 23.1474 9.98992 23.37 10.291C23.6003 10.6093 23.7667 10.9693 23.86 11.351C23.9654 11.7763 24.0192 12.2128 24.02 12.651C24.022 13.289 23.9241 13.9233 23.73 14.531C23.5538 15.0946 23.2796 15.6226 22.92 16.091C22.5856 16.5274 22.1631 16.8886 21.68 17.151C21.195 17.4131 20.6512 17.5473 20.1 17.541C19.5955 17.5562 19.0948 17.4499 18.64 17.231C18.2028 16.993 17.8422 16.6358 17.6 16.201L16.75 20.191H15.05L17.3 9.56101H18.95L18.75 10.581ZM18.02 14.371C17.9975 14.846 18.1586 15.3115 18.47 15.671C18.6449 15.8444 18.8551 15.978 19.0864 16.0625C19.3177 16.1471 19.5645 16.1807 19.81 16.161C20.1742 16.1662 20.532 16.0655 20.84 15.871C21.1512 15.6712 21.4142 15.4048 21.61 15.091C21.8276 14.7451 21.9895 14.3671 22.09 13.971C22.1997 13.5397 22.2535 13.096 22.25 12.651C22.2858 12.1394 22.1367 11.632 21.83 11.221C21.6979 11.0614 21.5309 10.9342 21.342 10.8492C21.153 10.7643 20.9471 10.7238 20.74 10.731C20.4417 10.7304 20.1461 10.7881 19.87 10.901C19.5953 11.013 19.3442 11.1758 19.13 11.381C18.9057 11.588 18.7136 11.8273 18.56 12.091C18.403 12.3681 18.2916 12.6686 18.23 12.981C18.1186 13.4371 18.0483 13.9023 18.02 14.371Z" fill="white"/>
<path d="M26.77 17.351C26.1753 17.3807 25.5907 17.1882 25.13 16.811C24.9194 16.6101 24.7555 16.3653 24.6501 16.0939C24.5447 15.8226 24.5003 15.5314 24.52 15.241C24.4998 14.7585 24.6252 14.2812 24.88 13.871C25.1212 13.5132 25.4477 13.2211 25.83 13.021C26.2602 12.7999 26.7225 12.648 27.2 12.571C27.7324 12.4811 28.2703 12.4276 28.81 12.411L30.22 12.351L30.26 12.111C30.2875 11.9424 30.3008 11.7718 30.3 11.601C30.311 11.4485 30.289 11.2954 30.2355 11.1522C30.182 11.009 30.0983 10.8789 29.99 10.771C29.6973 10.5436 29.329 10.4363 28.96 10.471C28.5416 10.4461 28.1233 10.5215 27.74 10.691C27.4252 10.8767 27.1955 11.1782 27.1 11.531L25.57 11.371C25.7501 10.6661 26.1987 10.0596 26.82 9.68099C27.5382 9.31961 28.3367 9.14752 29.14 9.18099C29.882 9.1327 30.6167 9.35274 31.21 9.80099C31.4518 10.0176 31.6426 10.2851 31.7688 10.5842C31.8951 10.8833 31.9535 11.2066 31.94 11.531C31.9396 11.6748 31.9296 11.8185 31.91 11.961C31.89 12.111 31.87 12.261 31.84 12.421L30.83 17.151H29.22L29.43 16.141C29.0966 16.4832 28.7161 16.7761 28.3 17.011C27.8285 17.2561 27.3009 17.3733 26.77 17.351ZM29.97 13.481L28.82 13.541C28.3996 13.5593 27.9815 13.6128 27.57 13.701C27.2857 13.7514 27.014 13.8567 26.77 14.011C26.5872 14.1233 26.4412 14.2867 26.35 14.481C26.2627 14.6795 26.2184 14.8942 26.22 15.111C26.2177 15.2336 26.2404 15.3554 26.2868 15.4689C26.3333 15.5824 26.4024 15.6852 26.49 15.771C26.601 15.8702 26.7308 15.946 26.8716 15.9941C27.0125 16.0422 27.1615 16.0616 27.31 16.051C27.6089 16.0508 27.9058 16.0036 28.19 15.911C28.4609 15.8258 28.7147 15.6938 28.94 15.521C29.1642 15.3566 29.3573 15.1534 29.51 14.921C29.6648 14.6834 29.7734 14.4188 29.83 14.141L29.97 13.481Z" fill="white"/>
<path d="M32.94 9.569H34.82L35.8 15.149L38.9 9.569H40.84L35.85 17.789C35.61 18.189 35.39 18.539 35.19 18.839C35.008 19.1141 34.7931 19.366 34.55 19.589C34.3346 19.7852 34.0833 19.938 33.81 20.039C33.5053 20.1481 33.1836 20.2023 32.86 20.199C32.6314 20.2026 32.4031 20.1791 32.18 20.129C31.9746 20.084 31.7738 20.0204 31.58 19.939L32.03 18.659C32.1506 18.7043 32.2742 18.7411 32.4 18.769C32.5478 18.8015 32.6986 18.8183 32.85 18.819C33.1136 18.834 33.3724 18.7441 33.57 18.569C33.8156 18.3237 34.0244 18.0441 34.19 17.739L34.64 16.979L32.94 9.569Z" fill="white"/>
<path d="M12.86 14.615C12.84 14.715 12.82 14.805 12.81 14.875C12.7979 14.9511 12.7912 15.028 12.79 15.105C12.7764 15.2153 12.7893 15.3273 12.8275 15.4316C12.8658 15.5359 12.9283 15.6296 13.01 15.705C13.1833 15.8226 13.391 15.8789 13.6 15.865C13.7675 15.8674 13.9349 15.854 14.1 15.825C14.2428 15.8046 14.3833 15.7711 14.52 15.725L14.77 16.995C14.2664 17.1588 13.7395 17.2398 13.21 17.235C12.6456 17.2727 12.086 17.1098 11.63 16.775C11.4377 16.599 11.2882 16.3813 11.1929 16.1387C11.0976 15.8961 11.059 15.6349 11.08 15.375C11.0781 15.0985 11.1117 14.8229 11.18 14.555L12 10.685H8.29999L8.57999 9.34501H12.28L12.73 7.26501H14.43L13.98 9.34501H16.06L15.78 10.685H13.7L12.86 14.615Z" fill="white"/>
</g>
</g>
<defs>
<clipPath id="clip0_1172_20944">
<rect width="50" height="25" fill="white"/>
</clipPath>
</defs>
</svg>
