<svg width="24" height="24" viewBox="0 0 24 24" fill="none" xmlns="http://www.w3.org/2000/svg">
  <path fill="currentColor" d="M17.5 14.1c-.3-.2-1.6-.8-1.8-.9-.2-.1-.4-.2-.6.2-.2.3-.7.9-.9 1.1-.2.2-.3.2-.6.1-1.6-.8-2.7-1.4-3.8-3.3-.3-.5.3-.5.8-1.5.1-.2 0-.3 0-.5s-.6-1.5-.9-2c-.2-.5-.5-.5-.7-.5h-.6c-.2 0-.5.1-.7.4-.2.3-.9.9-.9 2.3s.9 2.7 1.1 2.9c.1.2 1.9 3 4.7 4.2 1.7.7 2.4.8 3.3.7.5-.1 1.6-.7 1.8-1.3.2-.6.2-1.2.2-1.3 0-.1-.2-.2-.4-.3z"/>
  <path fill="currentColor" d="M21 7.9c-.6-1.3-1.4-2.5-2.5-3.5-1.1-1.1-2.3-1.8-3.5-2.5C13.1 1.5 11.8 1.2 10.5 1.2h-.1c-1.3 0-2.6.3-3.8.8-1.2.5-2.2 1.2-3.1 2.1-.9.9-1.6 2-2.1 3.1-.5 1.2-.8 2.6-.8 3.8 0 1.5.4 3 1.1 4.3v3.3c0 .6.4 1 1 1h3.3c1.3.7 2.8 1.1 4.3 1.1h.1c1.3 0 2.6-.3 3.8-.8 1.2-.5 2.2-1.2 3.1-2.1.9-.9 1.6-1.9 2.1-3.1.5-1.2.8-2.5.8-3.8 0-1.3-.3-2.6-.8-3.8zM17.2 18.1c-1.2.5-2.5.8-3.8.8h-.1c-1.3 0-2.6-.3-3.8-.8l-.2-.1H4.7v-2.1l-.1-.2c-.7-1.2-1.1-2.5-1.1-3.8 0-2.2.8-4.2 2.4-5.8 1.6-1.6 3.6-2.4 5.8-2.4h.1c1.1 0 2.2.2 3.2.6 1 .4 1.9 1 2.7 1.8.8.8 1.4 1.7 1.8 2.7.4 1 .6 2.1.6 3.2 0 2.2-.9 4.2-2.5 5.8z"/>
</svg>